<svg width="447" height="240" viewBox="0 0 447 240" fill="none" xmlns="http://www.w3.org/2000/svg">
<path d="M48.896 23.24C55.552 23.24 61.5253 24.4347 66.816 26.824C72.1067 29.128 76.5867 32.2853 80.256 36.296C84.0107 40.2213 86.8693 44.8293 88.832 50.12C90.88 55.3253 91.904 60.7867 91.904 66.504C91.904 72.904 90.7093 78.792 88.32 84.168C86.016 89.544 82.816 94.152 78.72 97.992C74.624 101.832 69.8453 104.861 64.384 107.08C59.008 109.213 53.248 110.28 47.104 110.28C40.5333 110.28 34.6027 109.085 29.312 106.696C24.1067 104.307 19.6693 101.149 16 97.224C12.416 93.2987 9.64267 88.776 7.68 83.656C5.71733 78.536 4.736 73.2027 4.736 67.656C4.736 62.1947 5.71733 56.8187 7.68 51.528C9.64267 46.152 12.5013 41.3733 16.256 37.192C20.096 33.0107 24.7467 29.64 30.208 27.08C35.6693 24.52 41.8987 23.24 48.896 23.24ZM48.768 105.8C54.4853 105.544 59.4773 104.264 63.744 101.96C68.096 99.5707 71.7227 96.584 74.624 93C77.5253 89.3307 79.6587 85.32 81.024 80.968C82.4747 76.616 83.2 72.3067 83.2 68.04C83.2 63.3467 82.3467 58.6107 80.64 53.832C78.9333 49.0533 76.5013 44.744 73.344 40.904C70.1867 36.9787 66.3893 33.8213 61.952 31.432C57.6 28.9573 52.6933 27.72 47.232 27.72C41.9413 27.72 37.2053 28.9147 33.024 31.304C28.8427 33.608 25.2587 36.5947 22.272 40.264C19.3707 43.9333 17.152 48.0293 15.616 52.552C14.08 57.0747 13.312 61.512 13.312 65.864C13.312 70.5573 14.208 75.2933 16 80.072C17.792 84.7653 20.2667 89.032 23.424 92.872C26.5813 96.712 30.2933 99.8267 34.56 102.216C38.912 104.605 43.648 105.8 48.768 105.8ZM161.759 100.68C161.759 101.363 161.844 102.131 162.015 102.984C162.186 103.752 162.442 104.477 162.783 105.16C163.21 105.843 163.679 106.44 164.191 106.952C164.703 107.464 165.3 107.72 165.983 107.72V109H149.343V107.72C150.026 107.72 150.623 107.507 151.135 107.08C151.647 106.568 152.074 105.971 152.415 105.288C152.756 104.52 153.012 103.752 153.183 102.984C153.354 102.131 153.439 101.363 153.439 100.68V66.12L132.063 110.152L111.583 68.68V100.68C111.583 101.363 111.668 102.131 111.839 102.984C112.01 103.752 112.266 104.477 112.607 105.16C112.948 105.843 113.375 106.44 113.887 106.952C114.399 107.464 114.996 107.72 115.679 107.72V109H103.263V107.72C103.946 107.72 104.543 107.464 105.055 106.952C105.567 106.44 105.951 105.843 106.207 105.16C106.548 104.477 106.804 103.752 106.975 102.984C107.146 102.131 107.231 101.363 107.231 100.68V63.176C107.231 61.64 107.018 60.1467 106.591 58.696C106.25 57.2453 105.14 56.52 103.263 56.52V55.24H114.655L134.239 95.304L153.823 55.24H165.983V56.52C164.703 56.52 163.679 57.3307 162.911 58.952C162.143 60.488 161.759 61.896 161.759 63.176V100.68ZM205.39 109.896C201.123 109.896 197.283 109.213 193.87 107.848C190.457 106.397 187.513 104.477 185.038 102.088C182.649 99.6133 180.771 96.712 179.406 93.384C178.126 90.056 177.486 86.4293 177.486 82.504C177.486 78.3227 178.211 74.5253 179.662 71.112C181.113 67.6133 183.118 64.6267 185.678 62.152C188.238 59.6773 191.267 57.7573 194.766 56.392C198.265 55.0267 202.062 54.344 206.158 54.344C210.254 54.344 214.009 55.0267 217.422 56.392C220.835 57.672 223.779 59.5067 226.254 61.896C228.729 64.2853 230.649 67.144 232.014 70.472C233.379 73.7147 234.062 77.2987 234.062 81.224C234.062 84.8933 233.422 88.4773 232.142 91.976C230.947 95.3893 229.113 98.4187 226.638 101.064C224.249 103.709 221.262 105.843 217.678 107.464C214.179 109.085 210.083 109.896 205.39 109.896ZM204.622 58.568C201.55 58.7387 198.819 59.5067 196.43 60.872C194.126 62.152 192.163 63.8587 190.542 65.992C189.006 68.04 187.811 70.3867 186.958 73.032C186.19 75.6773 185.806 78.3653 185.806 81.096C185.806 84.2533 186.275 87.3253 187.214 90.312C188.238 93.2133 189.646 95.816 191.438 98.12C193.315 100.424 195.534 102.259 198.094 103.624C200.654 104.989 203.513 105.672 206.67 105.672C209.827 105.672 212.601 104.989 214.99 103.624C217.465 102.259 219.513 100.509 221.134 98.376C222.755 96.1573 223.95 93.6827 224.718 90.952C225.571 88.2213 225.998 85.4907 225.998 82.76C225.998 79.944 225.571 77.128 224.718 74.312C223.865 71.4107 222.542 68.808 220.75 66.504C218.958 64.1147 216.697 62.1947 213.966 60.744C211.321 59.2933 208.206 58.568 204.622 58.568ZM258.054 100.68C258.054 101.363 258.139 102.131 258.31 102.984C258.481 103.752 258.737 104.477 259.078 105.16C259.419 105.843 259.803 106.44 260.23 106.952C260.742 107.464 261.297 107.72 261.894 107.72V109H245.766V107.72C246.363 107.72 246.875 107.507 247.302 107.08C247.814 106.568 248.241 105.971 248.582 105.288C248.923 104.52 249.179 103.752 249.35 102.984C249.521 102.131 249.606 101.363 249.606 100.68V63.176C249.606 62.5787 249.521 61.896 249.35 61.128C249.179 60.36 248.923 59.6347 248.582 58.952C248.241 58.2693 247.814 57.7147 247.302 57.288C246.875 56.776 246.363 56.52 245.766 56.52V55.24H261.894V56.52C261.211 56.52 260.614 56.776 260.102 57.288C259.675 57.7147 259.291 58.2693 258.95 58.952C258.694 59.6347 258.481 60.36 258.31 61.128C258.139 61.896 258.054 62.5787 258.054 63.176V78.664H287.238V63.176C287.238 62.5787 287.153 61.896 286.982 61.128C286.811 60.36 286.555 59.6347 286.214 58.952C285.958 58.2693 285.574 57.7147 285.062 57.288C284.635 56.776 284.081 56.52 283.398 56.52V55.24H299.526V56.52C298.843 56.52 298.246 56.776 297.734 57.288C297.307 57.7147 296.923 58.2693 296.582 58.952C296.241 59.6347 295.985 60.36 295.814 61.128C295.729 61.896 295.686 62.5787 295.686 63.176V100.68C295.686 101.363 295.771 102.131 295.942 102.984C296.113 103.752 296.369 104.477 296.71 105.16C297.051 105.843 297.435 106.44 297.862 106.952C298.374 107.464 298.929 107.72 299.526 107.72V109H283.398V107.72C283.995 107.72 284.507 107.507 284.934 107.08C285.446 106.568 285.873 105.971 286.214 105.288C286.555 104.52 286.811 103.752 286.982 102.984C287.153 102.131 287.238 101.363 287.238 100.68V82.888H258.054V100.68Z" fill="black"/>
<path d="M105.64 202.04C104.872 204.259 103.677 206.307 102.056 208.184C100.435 210.061 98.0453 211 94.888 211H90.92V209.72C91.432 209.72 92.1147 209.592 92.968 209.336C93.8213 208.995 94.7173 208.483 95.656 207.8C96.5947 207.117 97.5333 206.264 98.472 205.24C99.4107 204.131 100.221 202.765 100.904 201.144L125.096 134.84C125.523 133.56 125.736 132.579 125.736 131.896C125.736 130.616 125.352 129.635 124.584 128.952C123.901 128.184 123.176 127.8 122.408 127.8V126.52H132.904L161.576 204.856C162.003 206.051 162.813 207.16 164.008 208.184C165.203 209.123 166.525 209.635 167.976 209.72V211H149.672V209.72C150.355 209.72 151.037 209.464 151.72 208.952C152.488 208.355 152.872 207.587 152.872 206.648C152.872 206.392 152.787 206.008 152.616 205.496L128.552 139.192L105.64 202.04ZM204.39 211.896C200.123 211.896 196.283 211.213 192.87 209.848C189.457 208.397 186.513 206.477 184.038 204.088C181.649 201.613 179.771 198.712 178.406 195.384C177.126 192.056 176.486 188.429 176.486 184.504C176.486 180.323 177.211 176.525 178.662 173.112C180.113 169.613 182.118 166.627 184.678 164.152C187.238 161.677 190.267 159.757 193.766 158.392C197.265 157.027 201.062 156.344 205.158 156.344C209.254 156.344 213.009 157.027 216.422 158.392C219.835 159.672 222.779 161.507 225.254 163.896C227.729 166.285 229.649 169.144 231.014 172.472C232.379 175.715 233.062 179.299 233.062 183.224C233.062 186.893 232.422 190.477 231.142 193.976C229.947 197.389 228.113 200.419 225.638 203.064C223.249 205.709 220.262 207.843 216.678 209.464C213.179 211.085 209.083 211.896 204.39 211.896ZM203.622 160.568C200.55 160.739 197.819 161.507 195.43 162.872C193.126 164.152 191.163 165.859 189.542 167.992C188.006 170.04 186.811 172.387 185.958 175.032C185.19 177.677 184.806 180.365 184.806 183.096C184.806 186.253 185.275 189.325 186.214 192.312C187.238 195.213 188.646 197.816 190.438 200.12C192.315 202.424 194.534 204.259 197.094 205.624C199.654 206.989 202.513 207.672 205.67 207.672C208.827 207.672 211.601 206.989 213.99 205.624C216.465 204.259 218.513 202.509 220.134 200.376C221.755 198.157 222.95 195.683 223.718 192.952C224.571 190.221 224.998 187.491 224.998 184.76C224.998 181.944 224.571 179.128 223.718 176.312C222.865 173.411 221.542 170.808 219.75 168.504C217.958 166.115 215.697 164.195 212.966 162.744C210.321 161.293 207.206 160.568 203.622 160.568ZM272.158 156.344C276.425 156.344 280.265 157.069 283.678 158.52C287.177 159.885 290.121 161.805 292.51 164.28C294.985 166.669 296.862 169.528 298.142 172.856C299.422 176.184 300.062 179.811 300.062 183.736C300.062 187.917 299.337 191.757 297.886 195.256C296.435 198.669 294.43 201.613 291.87 204.088C289.31 206.563 286.281 208.483 282.782 209.848C279.283 211.213 275.486 211.896 271.39 211.896C267.038 211.896 263.155 211.085 259.742 209.464C256.329 207.757 253.427 205.453 251.038 202.552C248.649 199.651 246.814 196.237 245.534 192.312C244.254 188.301 243.614 183.992 243.614 179.384C243.614 176.739 243.742 174.307 243.998 172.088C244.339 169.869 244.809 167.736 245.406 165.688C246.089 163.555 246.899 161.507 247.838 159.544C248.777 157.581 249.886 155.533 251.166 153.4C254.75 147.768 259.23 143.331 264.606 140.088C270.067 136.845 275.614 135.224 281.246 135.224H297.502L292.51 143.416H279.198C276.467 143.416 273.737 143.928 271.006 144.952C268.275 145.891 265.673 147.341 263.198 149.304C260.809 151.181 258.675 153.485 256.798 156.216C254.921 158.947 253.427 162.061 252.318 165.56C254.622 162.744 257.267 160.525 260.254 158.904C263.326 157.197 267.294 156.344 272.158 156.344ZM272.926 207.544C276.083 207.373 278.857 206.648 281.246 205.368C283.635 204.003 285.641 202.296 287.262 200.248C288.883 198.115 290.078 195.768 290.846 193.208C291.699 190.563 292.126 187.875 292.126 185.144C292.126 181.987 291.614 178.957 290.59 176.056C289.566 173.069 288.115 170.467 286.238 168.248C284.361 166.029 282.099 164.237 279.454 162.872C276.894 161.507 274.035 160.824 270.878 160.824C267.806 160.824 265.075 161.507 262.686 162.872C260.297 164.152 258.291 165.859 256.67 167.992C255.049 170.125 253.811 172.557 252.958 175.288C252.19 178.019 251.806 180.749 251.806 183.48C251.806 186.211 252.275 189.027 253.214 191.928C254.238 194.744 255.646 197.304 257.438 199.608C259.315 201.912 261.534 203.832 264.094 205.368C266.739 206.819 269.683 207.544 272.926 207.544ZM345.302 211V204.472L344.662 205.112C342.529 207.245 340.054 208.909 337.238 210.104C334.507 211.299 331.179 211.896 327.254 211.896C324.267 211.896 321.707 211.555 319.574 210.872C317.441 210.189 315.691 209.251 314.326 208.056C312.961 206.776 311.937 205.325 311.254 203.704C310.657 202.083 310.358 200.376 310.358 198.584C310.358 195.683 311.126 193.123 312.662 190.904C314.283 188.685 316.587 186.723 319.574 185.016C322.561 183.309 326.187 181.773 330.454 180.408C334.806 178.957 339.755 177.549 345.302 176.184C345.131 172.856 344.449 170.168 343.254 168.12C342.059 166.072 340.651 164.493 339.03 163.384C337.409 162.189 335.702 161.421 333.91 161.08C332.118 160.653 330.582 160.44 329.302 160.44C327.083 160.44 325.121 160.781 323.414 161.464C321.707 162.061 320.214 162.915 318.934 164.024C317.654 165.048 316.587 166.243 315.734 167.608C314.966 168.973 314.369 170.339 313.942 171.704H312.79V161.72C313.558 161.72 314.454 161.464 315.478 160.952C316.502 160.355 317.697 159.715 319.062 159.032C320.513 158.349 322.219 157.752 324.182 157.24C326.23 156.643 328.662 156.344 331.478 156.344C336.171 156.344 339.969 156.941 342.87 158.136C345.771 159.331 347.99 160.909 349.526 162.872C351.147 164.835 352.214 167.096 352.726 169.656C353.238 172.131 353.494 174.691 353.494 177.336V202.68C353.494 204.387 353.921 206.008 354.774 207.544C355.627 208.995 356.779 209.72 358.23 209.72V211H345.302ZM345.302 198.84V180.536L344.022 180.792C341.974 181.304 339.457 181.987 336.47 182.84C333.569 183.693 330.795 184.803 328.15 186.168C325.505 187.533 323.243 189.155 321.366 191.032C319.489 192.909 318.55 195.085 318.55 197.56C318.55 200.291 319.659 202.552 321.878 204.344C324.097 206.136 326.998 207.032 330.582 207.032C333.398 207.032 335.873 206.435 338.006 205.24C340.139 203.96 342.102 202.339 343.894 200.376L345.302 198.84ZM397.274 156.344C401.882 156.344 405.85 157.155 409.178 158.776C412.591 160.312 415.407 162.36 417.626 164.92C419.93 167.48 421.637 170.424 422.746 173.752C423.855 177.08 424.41 180.493 424.41 183.992C424.41 187.405 423.855 190.776 422.746 194.104C421.722 197.432 420.101 200.419 417.882 203.064C415.749 205.709 413.061 207.843 409.818 209.464C406.575 211.085 402.735 211.896 398.298 211.896C395.653 211.896 392.922 211.213 390.106 209.848C387.375 208.397 384.901 206.605 382.682 204.472V230.84C382.682 231.523 382.767 232.248 382.938 233.016C383.109 233.869 383.365 234.637 383.706 235.32C384.133 236.003 384.559 236.6 384.986 237.112C385.498 237.624 386.095 237.88 386.778 237.88V239.16H370.138V237.88C370.735 237.88 371.29 237.624 371.802 237.112C372.314 236.6 372.741 236.003 373.082 235.32C373.509 234.637 373.807 233.869 373.978 233.016C374.149 232.248 374.234 231.523 374.234 230.84V164.792C374.234 164.024 374.191 163.299 374.106 162.616C374.106 161.848 373.978 161.208 373.722 160.696C373.466 160.099 373.039 159.629 372.442 159.288C371.93 158.861 371.162 158.605 370.138 158.52V157.24H382.682V162.872C384.389 160.824 386.437 159.245 388.826 158.136C391.301 156.941 394.117 156.344 397.274 156.344ZM398.426 207.544C401.413 207.459 404.015 206.776 406.234 205.496C408.453 204.216 410.287 202.552 411.738 200.504C413.189 198.456 414.255 196.195 414.938 193.72C415.621 191.16 415.962 188.515 415.962 185.784C415.962 182.712 415.535 179.683 414.682 176.696C413.829 173.709 412.591 171.064 410.97 168.76C409.349 166.371 407.343 164.451 404.954 163C402.65 161.464 400.005 160.696 397.018 160.696C395.226 160.696 393.434 161.037 391.642 161.72C389.935 162.403 388.399 163.384 387.034 164.664C385.754 165.944 384.687 167.48 383.834 169.272C383.066 170.979 382.682 172.899 382.682 175.032V191.8C382.682 194.104 383.151 196.237 384.09 198.2C385.029 200.077 386.223 201.741 387.674 203.192C389.21 204.557 390.917 205.624 392.794 206.392C394.671 207.16 396.549 207.544 398.426 207.544Z" fill="black"/>
<path d="M401.46 128.64C403.42 130.32 405.287 131.813 407.06 133.12C408.647 134.24 410.28 135.267 411.96 136.2C413.64 137.133 415.133 137.6 416.44 137.6V139H408.6C405.053 139 401.927 138.347 399.22 137.04C396.513 135.64 393.947 134.007 391.52 132.14L377.66 121.22C372.62 128.033 367.393 132.933 361.98 135.92C356.66 138.813 350.733 140.26 344.2 140.26C340 140.26 336.22 139.653 332.86 138.44C329.593 137.133 326.793 135.453 324.46 133.4C322.22 131.253 320.493 128.78 319.28 125.98C318.067 123.18 317.46 120.287 317.46 117.3C317.46 110.86 319.093 105.4 322.36 100.92C325.627 96.3467 331.087 92.24 338.74 88.6C334.26 84.8667 330.807 81.18 328.38 77.54C325.953 73.9 324.74 70.12 324.74 66.2C324.74 63.4933 325.253 60.9267 326.28 58.5C327.307 56.0733 328.753 53.9733 330.62 52.2C332.487 50.3333 334.633 48.8867 337.06 47.86C339.58 46.74 342.333 46.18 345.32 46.18C348.867 46.18 351.993 46.7867 354.7 48C357.407 49.2133 359.693 50.8 361.56 52.76C363.427 54.72 364.827 57.0067 365.76 59.62C366.693 62.14 367.16 64.7067 367.16 67.32C367.16 70.7733 366.087 74.3667 363.94 78.1C361.793 81.8333 358.06 85.24 352.74 88.32C357.033 91.8667 361.467 95.5533 366.04 99.38C370.613 103.207 375.14 106.893 379.62 110.44C381.487 106.707 382.98 102.973 384.1 99.24C385.313 95.5067 386.247 92.1 386.9 89.02C387.647 85.8467 388.113 83.0933 388.3 80.76C388.58 78.4267 388.72 76.7467 388.72 75.72C388.72 74.5067 388.253 73.4333 387.32 72.5C386.387 71.4733 385.36 70.96 384.24 70.96V69.56H398.66V70.96C397.727 70.96 396.747 71.4267 395.72 72.36C394.787 73.2 394.227 74.2733 394.04 75.58C393.48 80.4333 392.687 85.1467 391.66 89.72C390.82 93.64 389.7 97.7467 388.3 102.04C386.9 106.333 385.173 110.067 383.12 113.24C384.987 115.013 386.993 116.787 389.14 118.56C391.287 120.333 393.387 122.06 395.44 123.74L401.46 128.64ZM333.42 65.78C334.073 69.0467 335.893 72.2667 338.88 75.44C341.867 78.6133 345.087 81.6467 348.54 84.54C352.18 83.0467 354.98 80.8067 356.94 77.82C358.9 74.74 359.88 71.7533 359.88 68.86C359.88 66.62 359.507 64.4267 358.76 62.28C358.107 60.1333 357.08 58.22 355.68 56.54C354.373 54.7667 352.647 53.3667 350.5 52.34C348.447 51.22 346.02 50.66 343.22 50.66C340.14 50.66 337.667 51.8733 335.8 54.3C334.027 56.7267 333.14 59.62 333.14 62.98C333.14 63.4467 333.14 63.9133 333.14 64.38C333.14 64.8467 333.233 65.3133 333.42 65.78ZM348.26 135.36C352.833 135.36 357.36 133.773 361.84 130.6C366.413 127.427 370.567 123.32 374.3 118.28C369.167 113.987 363.94 109.647 358.62 105.26C353.3 100.78 348.073 96.44 342.94 92.24C337.247 94.9467 333.047 98.3067 330.34 102.32C327.633 106.333 326.28 110.393 326.28 114.5C326.28 117.02 326.84 119.493 327.96 121.92C329.08 124.347 330.62 126.54 332.58 128.5C334.54 130.46 336.873 132.093 339.58 133.4C342.287 134.613 345.18 135.267 348.26 135.36Z" fill="#A0000B"/>
</svg>
